mastitorrents.com
  
http://mastitorrents.com/forums/index.php

General
Complete name : Players (2012) - Xvid - DVDScr Rip - AC3 - [TDT].avi
IMDB : http://www.imdb.com/title/tt1784589/
Format : AVI
Format/Info : Audio Video Interleave
File size : 895 MiB
Duration : 2h 40mn
Overall bit rate : 778 Kbps
Writing application : VirtualDubMod 1.5.10.3 | VirtualDub-Fr.org || (build 2550/release)
Writing library : VirtualDubMod build 2550/release
Source : DvDScr @ Team ICTV .. Thnx A LOT
Ripper : KINGFISHER [~TDT~].

Video
ID : 0
Format : MPEG-4 Visual
Format profile : Advanced Simple@L5
Format settings, BVOP : 1
Format settings, QPel : No
Format settings, GMC : No warppoints
Format settings, Matrix : Default (H.263)
Muxing mode : Packed bitstream
Codec ID : XVID
Codec ID/Hint : XviD
Duration : 2h 40mn
Bit rate : 673 Kbps
Width : 672 pixels
Height : 256 pixels
Display aspect ratio : 2.625
Frame rate : 23.976 fps
Color space : YUV
Chroma subsampling : 4:2:0
Bit depth : 8 bits
Scan type : Progressive
Compression mode : Lossy
Bits/(Pixel*Frame) : 0.163
Stream size : 774 MiB (86%)
Writing library : XviD 1.2.1 (UTC 2008-12-04)

Audio
ID : 1
Format : AC-3
Format/Info : Audio Coding 3
Mode extension : CM (complete main)
Codec ID : 2000
Duration : 2h 40mn
Bit rate mode : Constant
Bit rate : 96.0 Kbps
Channel(s) : 2 channels
Channel positions : Front: L R
Sampling rate : 48.0 KHz
Bit depth : 16 bits
Compression mode : Lossy
Stream size : 110 MiB (12%)
Alignment : Aligned on interleaves
Interleave, duration : 42 ms (1.00 video frame)
Interleave, preload duration : 512 ms
